# xmcd CD database file
#
# Track frame offsets:
#	150
#	23102
#	31943
#	50489
#	57825
#	93958
#	107455
#	125707
#	145280
#	175673
#	190076
#	205045
#	221858
#	243789
#	255576
#	268547
#	281670
#	290014
#	301355
#	310176
#	321597
#	327987
#
# Disc length: 4558 seconds
#
# Revision: 0
# Processed by: cddbd v1.5.1PL0 Copyright (c) Steve Scherf et al.
# Submitted via: CDex 1.51
#
DISCID=4711cc16
DTITLE=Robert Pete Williams - Angola Prison - Spirits
DYEAR=2003
DGENRE=Blues
TTITLE0=I'm On My Way
TTITLE1=Church On Fire With the Word of God
TTITLE2=What Shall I Do
TTITLE3=Brother Norah
TTITLE4=Little School Song
TTITLE5=Dyin' Soul
TTITLE6=Let My People Go
TTITLE7=So Much Is Happenin' In the News
TTITLE8=Dig My Grave With a Silver Spade
TTITLE9=Brother Mosely Crossed the Water
TTITLE10=I'm Stranded On the Banks of Ole Jordan
TTITLE11=I'm Goin' Back With Him When He Comes
TTITLE12=The Old Ship of Zion
TTITLE13=When I Lay My Burden Down
TTITLE14=See How They Done My Lord
TTITLE15=Be With Me Jesus
TTITLE16=Rise and Fly
TTITLE17=I Know I Got Religion
TTITLE18=Jesus
TTITLE19=I Take Jesus (Do Lord, Remember Me)
TTITLE20=Each Day (Life's Evening Sun)
TTITLE21=Steal Away to Jesus
EXTD=YEAR: 2003
EXTT0=
EXTT1=
EXTT2=
EXTT3=
EXTT4=
EXTT5=
EXTT6=
EXTT7=
EXTT8=
EXTT9=
EXTT10=
EXTT11=
EXTT12=
EXTT13=
EXTT14=
EXTT15=
EXTT16=
EXTT17=
EXTT18=
EXTT19=
EXTT20=
EXTT21=
PLAYORDER=
